<svg width="256" height="256" viewBox="0 0 256 256" fill="none" xmlns="http://www.w3.org/2000/svg">
<g clip-path="url(#clip0_3249_29860)">
<path d="M119.875 -0.373736C120.608 -0.411119 121.342 -0.448502 122.098 -0.487018C124.242 -0.522174 124.242 -0.522174 128 0.00126368C132.551 4.42225 132.119 12.4304 132.729 18.429C133.338 23.871 133.338 23.871 135.879 28.6185C139.095 30.7149 141.26 30.6024 145 30.0013C147.697 27.7685 148.859 25.9465 149.378 22.4668C149.547 19.4114 149.61 16.3738 149.625 13.3138C149.65 11.2264 149.684 9.13912 149.727 7.05204C149.733 6.13077 149.738 5.20949 149.745 4.2603C150 2.00126 150 2.00126 152 0.00126368C156.399 -0.421238 160.813 -0.37033 165.231 -0.369342C167.426 -0.373714 169.619 -0.410021 171.814 -0.447955C173.208 -0.453824 174.602 -0.457793 175.996 -0.459674C177.902 -0.472 177.902 -0.472 179.845 -0.484576C183 0.0012637 183 0.00126362 184.915 1.71367C186.169 4.35688 186.369 6.1446 186.371 9.06376C186.388 10.0254 186.406 10.987 186.424 11.9778C186.433 13.9934 186.438 16.0091 186.439 18.0247C186.442 23.693 186.442 23.693 188.848 28.6575C191.815 30.5099 193.566 30.5736 197 30.0013C199.806 28.3644 200.765 26.8624 201.617 23.7435C202.168 20.8366 202.602 17.933 203 15.0013C203.328 12.6463 203.661 10.2921 204 7.93876C204.144 6.85466 204.289 5.77056 204.438 4.65361C205 2.00126 205 2.00126 207 0.00126368C209.709 -0.197257 212.293 -0.277131 215 -0.248736C216.106 -0.260338 216.106 -0.260338 217.234 -0.272174C222.747 -0.252056 222.747 -0.252056 225 2.00126C225.279 8.42528 224.795 14.7558 224.23 21.1536C224.149 22.0938 224.067 23.034 223.983 24.0026C223.809 25.9785 223.634 27.9542 223.456 29.9297C223.189 32.9261 222.937 35.9235 222.686 38.9212C222.514 40.8529 222.341 42.7846 222.168 44.7161C222.096 45.5987 222.024 46.4813 221.95 47.3907C221.214 55.2271 220.101 64.5103 214 70.0013C210.411 72.1637 206.744 74.1228 203 76.0013C203.784 76.6613 204.567 77.3213 205.375 78.0013C208.511 81.5847 209.632 84.2908 210 89.0013C209.376 93.6042 208.471 95.5088 205.25 98.8763C201.916 101.056 199.871 101.493 196 102.001C198.5 136.645 198.5 136.645 206.375 170.376C206.643 171.215 206.911 172.053 207.187 172.917C209.794 180.459 213.298 187.183 219.848 191.947C222.026 193.684 222.879 194.512 223.554 197.242C223.688 199.823 223.614 202.299 223.438 204.876C223.39 206.195 223.39 206.195 223.342 207.54C223.26 209.695 223.134 211.849 223 214.001C223.913 214.111 224.825 214.22 225.766 214.333C228.976 214.996 230.334 215.577 232.75 217.689C233.322 218.167 233.895 218.645 234.484 219.138C242.064 228.456 238 248.177 238 256.001C165.4 256.001 92.8 256.001 18 256.001C18 226.67 18 226.67 21.332 222.224C24.7797 219.522 26.6961 218.76 31 219.001C30.884 217.855 30.768 216.709 30.6484 215.529C29.7905 203.466 29.7905 203.466 33.0156 199.56C35.6123 197.884 38.276 196.457 41 195.001C49.165 187.642 53.5932 176.471 54.1836 165.63C54.187 162.747 54.1357 159.881 54 157.001C52.9069 156.609 51.8138 156.218 50.6875 155.814C47.0593 154.253 45.5887 152.708 44 149.001C42.4706 144.531 43.221 141.333 45 137.001C49.0522 132.666 52.1057 131.355 58 131.001C57.6133 130.589 57.2266 130.176 56.8281 129.751C48.9729 121.041 46.5895 113.323 46.7344 101.669C47.4092 92.3506 51.0636 85.8488 57.4883 79.1692C66.6569 71.2554 76.2949 70.3044 88 71.0013C96.505 72.4881 103.078 77.2584 108.312 84.0013C114.383 92.6623 115.897 100.531 115 111.001C113.217 119.004 109.361 124.903 104 131.001C104.592 131.076 105.183 131.151 105.793 131.228C110.127 131.949 112.595 132.67 116.062 135.501C118.512 138.984 118.713 142.425 118.48 146.595C117.656 150.723 116.223 152.258 113 155.001C110.685 155.728 108.352 156.403 106 157.001C108.26 175.678 108.26 175.678 118 191.001C136.355 165.456 137.241 132.338 139 102.001C138.067 101.874 137.133 101.746 136.172 101.615C132.393 100.884 130.739 99.6643 128 97.0013C125.448 92.7693 125.431 88.8228 126 84.0013C127.522 80.6663 129.415 78.5355 132 76.0013C131.13 75.5817 131.13 75.5817 130.242 75.1536C122.744 71.3055 117.873 67.04 115 59.0013C114.563 56.4662 114.563 56.4662 114.298 53.7554C114.195 52.7341 114.092 51.7127 113.985 50.6605C113.883 49.5676 113.781 48.4748 113.676 47.3489C113.565 46.216 113.455 45.0831 113.341 43.9159C113.11 41.5233 112.882 39.1302 112.658 36.7369C112.314 33.0797 111.954 29.4243 111.592 25.7688C111.369 23.4415 111.147 21.114 110.926 18.7864C110.763 17.1502 110.763 17.1502 110.598 15.481C109.714 5.8224 109.714 5.8224 111 1.00126C113.057 -1.05607 117.063 -0.319938 119.875 -0.373736Z" fill="#4D7296"/>
<path d="M99.1133 75.2524C106.262 80.1931 112.505 87.7334 114.555 96.3227C116.26 106.571 115.077 115.992 109.176 124.686C107.509 126.85 105.803 128.947 104 130.998C104.592 131.073 105.183 131.148 105.793 131.225C110.127 131.946 112.595 132.668 116.062 135.498C118.512 138.981 118.713 142.422 118.48 146.592C117.656 150.721 116.223 152.255 113 154.998C110.685 155.725 108.352 156.4 106 156.998C108.491 175.12 108.491 175.12 117 190.998C116.01 192.978 116.01 192.978 115 194.998C114.34 194.998 113.68 194.998 113 194.998C113 201.268 113 207.538 113 213.998C111.597 214.555 110.195 215.112 108.75 215.686C103.951 217.806 101.362 220.274 99 224.998C98.67 235.228 98.34 245.458 98 255.998C71.6 255.998 45.2 255.998 18 255.998C18 226.667 18 226.667 21.332 222.221C24.7797 219.519 26.6961 218.757 31 218.998C30.884 217.852 30.768 216.707 30.6484 215.526C29.7905 203.464 29.7905 203.464 33.0156 199.557C35.6123 197.882 38.276 196.454 41 194.998C49.165 187.64 53.5932 176.468 54.1836 165.627C54.187 162.744 54.1357 159.878 54 156.998C52.9069 156.607 51.8138 156.215 50.6875 155.811C47.0593 154.25 45.5887 152.705 44 148.998C42.4706 144.528 43.221 141.33 45 136.998C49.0522 132.664 52.1057 131.352 58 130.998C57.4199 130.38 57.4199 130.38 56.8281 129.748C48.9729 121.038 46.5895 113.32 46.7344 101.666C47.4092 92.3478 51.0636 85.846 57.4883 79.1664C68.8753 69.3378 86.096 67.5286 99.1133 75.2524Z" fill="#CED2DE"/>
<path d="M154.999 110C168.529 110 182.059 110 195.999 110C196.861 113.448 197.299 116.509 197.613 120.031C199.314 138.286 201.208 155.906 207.374 173.25C207.642 174.013 207.91 174.775 208.186 175.561C210.749 182.312 214.308 188.266 220.351 192.387C223.278 195.275 223.407 195.758 223.585 199.645C223.546 201.368 223.475 203.091 223.374 204.812C223.334 206.138 223.334 206.138 223.292 207.49C223.222 209.661 223.114 211.831 222.999 214C223.912 214.11 224.825 214.219 225.765 214.332C228.976 214.995 230.333 215.576 232.749 217.688C233.322 218.166 233.894 218.644 234.484 219.137C242.063 228.455 237.999 248.176 237.999 256C208.299 256 178.599 256 147.999 256C147.999 223.64 147.999 223.64 153.562 217.188C154.999 216 154.999 216 157.999 215C153.049 214.67 148.099 214.34 142.999 214C142.89 211.02 142.812 208.044 142.749 205.062C142.716 204.232 142.682 203.401 142.648 202.545C142.561 196.981 143.525 193.204 145.984 188.236C147.687 184.487 148.375 180.591 149.124 176.562C149.358 175.419 149.358 175.419 149.597 174.252C152.564 158.964 153.389 143.397 154.124 127.875C154.413 121.976 154.702 116.077 154.999 110Z" fill="#678DB1"/>
<path d="M163.049 -0.372801C163.769 -0.37264 164.489 -0.372479 165.231 -0.372313C167.426 -0.376685 169.619 -0.412992 171.814 -0.450926C173.208 -0.456795 174.602 -0.460764 175.996 -0.462645C177.902 -0.474972 177.902 -0.474972 179.845 -0.487548C183 -0.00170773 183 -0.00170779 184.915 1.71069C186.169 4.35391 186.369 6.14163 186.371 9.06079C186.397 10.5033 186.397 10.5033 186.424 11.9749C186.433 13.9905 186.438 16.0061 186.439 18.0217C186.442 23.69 186.442 23.69 188.848 28.6545C191.815 30.5069 193.566 30.5706 197 29.9983C199.806 28.3614 200.765 26.8594 201.617 23.7405C202.168 20.8336 202.602 17.9301 203 14.9983C203.328 12.6433 203.661 10.2891 204 7.93579C204.144 6.85169 204.289 5.76759 204.438 4.65064C205 1.99829 205 1.99829 207 -0.00170773C209.709 -0.200229 212.293 -0.280103 215 -0.251708C216.106 -0.263309 216.106 -0.263309 217.234 -0.275145C222.747 -0.255027 222.747 -0.255027 225 1.99829C225.279 8.4223 224.795 14.7529 224.23 21.1506C224.149 22.0908 224.067 23.031 223.983 23.9997C223.809 25.9755 223.634 27.9513 223.456 29.9268C223.189 32.9231 222.937 35.9205 222.686 38.9182C222.514 40.8499 222.341 42.7816 222.168 44.7131C222.096 45.5957 222.024 46.4783 221.95 47.3877C221.214 55.2241 220.101 64.5073 214 69.9983C210.411 72.1608 206.744 74.1198 203 75.9983C204.176 76.9883 204.176 76.9883 205.375 77.9983C208.511 81.5818 209.632 84.2878 210 88.9983C209.394 93.4665 208.381 95.9816 205 98.8733C200.185 102.284 196.591 102.189 190.828 102.237C189.913 102.245 188.998 102.253 188.055 102.261C186.115 102.275 184.175 102.286 182.234 102.293C179.276 102.311 176.318 102.355 173.359 102.399C171.474 102.409 169.589 102.417 167.703 102.424C166.822 102.442 165.94 102.459 165.032 102.477C159.509 102.458 156.382 101.677 152 97.9983C149.449 95.2509 148.089 93.3548 147.84 89.5647C148.079 85.6338 148.701 82.6088 150.438 79.0608C154.203 76.0301 158.348 75.0904 163 73.9983C162.469 73.6954 161.938 73.3924 161.391 73.0803C153.543 68.4262 150.302 63.7529 148 54.9983C147.438 51.4046 147.138 47.8124 146.875 44.1858C146.729 42.3457 146.581 40.5059 146.43 38.6663C146.341 37.4639 146.341 37.4639 146.25 36.2373C146.066 33.9838 146.066 33.9838 145.354 31.8328C145.238 31.2274 145.121 30.622 145 29.9983C145.626 29.3318 146.253 28.6654 146.898 27.9788C150.131 23.3942 149.598 18.7895 149.625 13.3108C149.65 11.2234 149.684 9.13615 149.727 7.04907C149.733 6.1278 149.738 5.20652 149.745 4.25733C150.479 -2.23774 158.078 -0.337713 163.049 -0.372801Z" fill="#678DB1"/>
<path d="M106 161C106.33 161 106.66 161 107 161C107.087 161.788 107.173 162.575 107.262 163.387C108.517 173.112 110.625 183.25 117 191C116.34 192.32 115.68 193.64 115 195C114.34 195 113.68 195 113 195C113 201.27 113 207.54 113 214C111.598 214.557 110.195 215.114 108.75 215.688C103.952 217.808 101.363 220.276 99.0005 225C98.8453 227.323 98.7503 229.65 98.6841 231.977C98.646 233.23 98.6078 234.484 98.5686 235.776C98.5255 237.376 98.4824 238.976 98.438 240.625C98.2936 245.699 98.1492 250.773 98.0005 256C85.1305 256 72.2605 256 59.0005 256C58.918 251.689 58.8355 247.379 58.7505 242.938C58.7141 241.592 58.6776 240.246 58.6401 238.859C58.5769 232.035 58.7064 227.445 63.0005 222C63.9905 221.34 64.9805 220.68 66.0005 220C62.7005 219.67 59.4005 219.34 56.0005 219C54.9432 201.946 54.9432 201.946 60.4067 195.207C66.6377 186.578 66.7665 173.872 68.0005 164C80.5405 164 93.0805 164 106 164C106 163.01 106 162.02 106 161Z" fill="#F0F1F5"/>
<path d="M94.3749 73.1256C103.728 77.7123 110.256 84.2087 114 94.0006C116.634 104.748 114.89 114.22 110 124.001C97.7899 124.001 85.5799 124.001 72.9999 124.001C68.1975 114.396 65.9976 104.918 68.6835 94.2975C69.6309 92.049 70.6971 90.0623 71.9999 88.0006C72.424 87.3045 72.8481 86.6084 73.2851 85.8912C76.9198 80.5049 81.3973 77.1992 86.9999 74.0006C87.6805 73.5932 88.3612 73.1859 89.0624 72.7662C90.9999 72.0006 90.9999 72.0006 94.3749 73.1256Z" fill="#F0F1F5"/>
<path d="M90.8501 131.648C92.4864 131.632 94.1225 131.604 95.7583 131.566C98.127 131.511 100.494 131.49 102.863 131.475C103.588 131.452 104.313 131.43 105.061 131.406C108.979 131.422 111.443 131.976 114.446 134.406C117.686 137.695 118.198 139.255 118.375 143.748C118.329 147.296 118.098 149.637 115.937 152.498C109.157 158.269 100.584 157.284 92.1844 157.052C90.0051 156.999 87.8281 156.988 85.6482 156.979C73.0785 156.76 73.0785 156.76 68.0784 151.666C66.0812 148.578 65.6168 145.619 65.9998 141.998C67.5077 137.792 69.1457 135.287 72.9998 132.998C78.6266 131.123 84.9485 131.692 90.8501 131.648Z" fill="#F0F1F5"/>
</g>
<defs>
<clipPath id="clip0_3249_29860">
<rect width="256" height="256" fill="white"/>
</clipPath>
</defs>
</svg>
